<svg width="24" height="25" viewBox="0 0 24 25" fill="none" xmlns="http://www.w3.org/2000/svg">
<path d="M10.733 5.576C13.0624 5.2984 15.4186 5.79082 17.4419 6.97805C19.4651 8.16528 21.0442 9.98208 21.938 12.151C22.0213 12.3755 22.0213 12.6225 21.938 12.847C21.5705 13.738 21.0848 14.5755 20.494 15.337M14.084 14.658C13.5182 15.2045 12.7604 15.5069 11.9738 15.5C11.1872 15.4932 10.4348 15.1777 9.87853 14.6215C9.32231 14.0652 9.0068 13.3128 8.99996 12.5262C8.99313 11.7396 9.29551 10.9818 9.84199 10.416M17.479 17.999C16.1525 18.7848 14.6724 19.276 13.1393 19.4394C11.6062 19.6028 10.0559 19.4345 8.59362 18.9459C7.1313 18.4573 5.79118 17.6599 4.6642 16.6077C3.53722 15.5556 2.64974 14.2734 2.06199 12.848C1.97865 12.6235 1.97865 12.3765 2.06199 12.152C2.94862 10.0019 4.50866 8.19725 6.50799 7.009M1.99999 2.5L22 22.5" stroke="black" stroke-width="2" stroke-linecap="round" stroke-linejoin="round"/>
</svg>
