<svg width="24" height="25" viewBox="0 0 24 25" fill="none" xmlns="http://www.w3.org/2000/svg">
<path d="M2.06199 12.848C1.97865 12.6235 1.97865 12.3765 2.06199 12.152C2.87369 10.1838 4.2515 8.50103 6.02076 7.31689C7.79001 6.13275 9.87103 5.50061 12 5.50061C14.1289 5.50061 16.21 6.13275 17.9792 7.31689C19.7485 8.50103 21.1263 10.1838 21.938 12.152C22.0213 12.3765 22.0213 12.6235 21.938 12.848C21.1263 14.8161 19.7485 16.499 17.9792 17.6831C16.21 18.8672 14.1289 19.4994 12 19.4994C9.87103 19.4994 7.79001 18.8672 6.02076 17.6831C4.2515 16.499 2.87369 14.8161 2.06199 12.848Z" stroke="black" stroke-width="2" stroke-linecap="round" stroke-linejoin="round"/>
<path d="M12 15.5C13.6568 15.5 15 14.1568 15 12.5C15 10.8431 13.6568 9.49999 12 9.49999C10.3431 9.49999 8.99999 10.8431 8.99999 12.5C8.99999 14.1568 10.3431 15.5 12 15.5Z" stroke="black" stroke-width="2" stroke-linecap="round" stroke-linejoin="round"/>
</svg>
