<svg width="520" height="441" viewBox="0 0 520 441" fill="none" xmlns="http://www.w3.org/2000/svg">
    <rect width="520" height="441" rx="20" fill="#F5F5F5"/>
    <rect x=".5" y=".5" width="519" height="440" rx="19.5" stroke="#797979" stroke-opacity=".08"/>
    <path d="M125.68 55.5V35.9h3.416v16.184h8.162V55.5H125.68zm19.668.364a6.54 6.54 0 0 1-3.528-.994 7.444 7.444 0 0 1-2.534-2.66c-.626-1.12-.938-2.357-.938-3.71 0-1.027.182-1.983.546-2.87a7.493 7.493 0 0 1 1.498-2.352 7.02 7.02 0 0 1 2.24-1.596 6.532 6.532 0 0 1 2.716-.574c1.288 0 2.459.331 3.514.994a7.27 7.27 0 0 1 2.534 2.674c.634 1.12.952 2.361.952 3.724 0 1.017-.182 1.97-.546 2.856a7.584 7.584 0 0 1-1.512 2.352 6.977 6.977 0 0 1-2.226 1.582 6.475 6.475 0 0 1-2.716.574zm0-3.416c.681 0 1.292-.182 1.834-.546a3.812 3.812 0 0 0 1.274-1.442c.317-.597.476-1.25.476-1.96 0-.728-.164-1.39-.49-1.988a3.752 3.752 0 0 0-1.302-1.442 3.145 3.145 0 0 0-1.792-.546c-.672 0-1.279.182-1.82.546-.542.364-.971.85-1.288 1.456a4.187 4.187 0 0 0-.476 1.974c0 .737.163 1.405.49 2.002.326.597.76 1.073 1.302 1.428.55.345 1.148.518 1.792.518zM164.97 41.5h3.416v14.266c0 1.008-.205 1.923-.616 2.744-.41.83-.97 1.54-1.68 2.128a7.615 7.615 0 0 1-2.436 1.372 8.506 8.506 0 0 1-2.884.49c-.98 0-1.922-.2-2.828-.602a7.914 7.914 0 0 1-2.408-1.652 7.178 7.178 0 0 1-1.582-2.366l3.122-1.414c.187.513.467.961.84 1.344.383.392.822.695 1.316.91a3.695 3.695 0 0 0 1.54.336c.542 0 1.06-.075 1.554-.224.504-.15.957-.369 1.358-.658.402-.28.714-.625.938-1.036.234-.401.35-.859.35-1.372v-1.974a5.178 5.178 0 0 1-1.652 1.498c-.662.383-1.428.574-2.296.574a6.997 6.997 0 0 1-2.828-.574 7.498 7.498 0 0 1-2.324-1.582 7.761 7.761 0 0 1-1.568-2.352 7.29 7.29 0 0 1-.56-2.856c0-1.017.187-1.97.56-2.856a7.585 7.585 0 0 1 1.568-2.338 7.383 7.383 0 0 1 2.324-1.596 6.997 6.997 0 0 1 2.828-.574c.868 0 1.634.191 2.296.574a5.03 5.03 0 0 1 1.652 1.484V41.5zm-3.906 11.074c.719 0 1.354-.182 1.904-.546a3.89 3.89 0 0 0 1.316-1.484 4.443 4.443 0 0 0 .476-2.044 4.29 4.29 0 0 0-.49-2.044 3.89 3.89 0 0 0-1.316-1.484c-.55-.373-1.18-.56-1.89-.56-.7 0-1.339.187-1.918.56a4.046 4.046 0 0 0-1.386 1.47 4.14 4.14 0 0 0-.518 2.058c0 .756.173 1.442.518 2.058a4.046 4.046 0 0 0 1.386 1.47 3.53 3.53 0 0 0 1.918.546zM171.426 41.5h3.416v14h-3.416v-14zm1.736-1.806c-.504 0-.929-.163-1.274-.49a1.687 1.687 0 0 1-.518-1.26c0-.495.173-.91.518-1.246a1.738 1.738 0 0 1 1.26-.504c.495 0 .91.168 1.246.504.345.336.518.751.518 1.246 0 .504-.168.924-.504 1.26-.336.327-.751.49-1.246.49zm17.76 6.958V55.5h-3.416v-7.952c0-.55-.135-1.05-.406-1.498a2.956 2.956 0 0 0-1.092-1.078 2.84 2.84 0 0 0-1.498-.406c-.551 0-1.055.135-1.512.406-.448.261-.807.62-1.078 1.078a2.921 2.921 0 0 0-.392 1.498V55.5h-3.416l-.014-14h3.416l.014 1.246a5.155 5.155 0 0 1 1.708-1.19 5.154 5.154 0 0 1 2.142-.448c1.017 0 1.946.252 2.786.756a5.566 5.566 0 0 1 2.002 2.002c.504.83.756 1.76.756 2.786zm17.02-1.736h-2.716V55.5h-3.416V44.916h-2.072V41.5h2.072v-4.396h3.416V41.5h2.716v3.416zm8.39 10.948a6.54 6.54 0 0 1-3.528-.994 7.461 7.461 0 0 1-2.534-2.66c-.625-1.12-.938-2.357-.938-3.71 0-1.027.182-1.983.546-2.87a7.511 7.511 0 0 1 1.498-2.352 7.03 7.03 0 0 1 2.24-1.596 6.538 6.538 0 0 1 2.716-.574c1.288 0 2.46.331 3.514.994a7.263 7.263 0 0 1 2.534 2.674c.635 1.12.952 2.361.952 3.724 0 1.017-.182 1.97-.546 2.856a7.584 7.584 0 0 1-1.512 2.352 6.955 6.955 0 0 1-2.226 1.582 6.472 6.472 0 0 1-2.716.574zm0-3.416a3.21 3.21 0 0 0 1.834-.546 3.803 3.803 0 0 0 1.274-1.442c.318-.597.476-1.25.476-1.96a4.07 4.07 0 0 0-.49-1.988 3.737 3.737 0 0 0-1.302-1.442 3.14 3.14 0 0 0-1.792-.546 3.19 3.19 0 0 0-1.82.546c-.541.364-.97.85-1.288 1.456a4.199 4.199 0 0 0-.476 1.974c0 .737.164 1.405.49 2.002a3.93 3.93 0 0 0 1.302 1.428 3.311 3.311 0 0 0 1.792.518zM242.171 41.5h3.626l-7.658 21h-3.626l2.534-7-5.04-14h3.738l3.01 9.324 3.416-9.324zm11.185 14.364a6.54 6.54 0 0 1-3.528-.994 7.444 7.444 0 0 1-2.534-2.66c-.626-1.12-.938-2.357-.938-3.71 0-1.027.182-1.983.546-2.87a7.493 7.493 0 0 1 1.498-2.352 7.02 7.02 0 0 1 2.24-1.596 6.532 6.532 0 0 1 2.716-.574c1.288 0 2.459.331 3.514.994a7.27 7.27 0 0 1 2.534 2.674c.634 1.12.952 2.361.952 3.724 0 1.017-.182 1.97-.546 2.856a7.584 7.584 0 0 1-1.512 2.352 6.977 6.977 0 0 1-2.226 1.582 6.475 6.475 0 0 1-2.716.574zm0-3.416c.681 0 1.292-.182 1.834-.546a3.812 3.812 0 0 0 1.274-1.442c.317-.597.476-1.25.476-1.96 0-.728-.164-1.39-.49-1.988a3.752 3.752 0 0 0-1.302-1.442 3.145 3.145 0 0 0-1.792-.546c-.672 0-1.279.182-1.82.546-.542.364-.971.85-1.288 1.456a4.187 4.187 0 0 0-.476 1.974c0 .737.163 1.405.49 2.002.326.597.76 1.073 1.302 1.428.55.345 1.148.518 1.792.518zm8.291-2.128V41.5h3.416v7.924c0 .55.136 1.055.406 1.512.271.448.63.807 1.078 1.078a2.97 2.97 0 0 0 1.498.392c.56 0 1.064-.13 1.512-.392a3.13 3.13 0 0 0 1.078-1.078 2.91 2.91 0 0 0 .406-1.512V41.5h3.416l.014 14h-3.416l-.014-1.274a5.496 5.496 0 0 1-1.722 1.204 5.258 5.258 0 0 1-2.128.434 5.39 5.39 0 0 1-2.786-.742 5.83 5.83 0 0 1-2.016-2.002c-.494-.84-.742-1.773-.742-2.8zm15.641 5.18-.014-14h3.416l.014 1.246a5.155 5.155 0 0 1 1.708-1.19 5.147 5.147 0 0 1 2.142-.448c.513 0 1.026.075 1.54.224l-1.344 3.444a2.912 2.912 0 0 0-2.576.196c-.448.261-.808.62-1.078 1.078a2.912 2.912 0 0 0-.392 1.498V55.5h-3.416zm24.038-19.6h3.934l7.126 19.6h-3.626l-1.26-3.472h-8.4l-1.26 3.472h-3.626l7.112-19.6zm-.98 12.712h5.894l-2.954-8.078-2.94 8.078zm22.112 2.674 3.08 1.666a7.349 7.349 0 0 1-2.422 2.114 6.505 6.505 0 0 1-3.178.798 6.54 6.54 0 0 1-3.528-.994 7.444 7.444 0 0 1-2.534-2.66c-.626-1.12-.938-2.357-.938-3.71 0-1.027.182-1.983.546-2.87a7.493 7.493 0 0 1 1.498-2.352 7.02 7.02 0 0 1 2.24-1.596 6.532 6.532 0 0 1 2.716-.574c1.148 0 2.207.266 3.178.798a7.223 7.223 0 0 1 2.422 2.142l-3.08 1.652a3.426 3.426 0 0 0-1.162-.868 3.173 3.173 0 0 0-1.358-.308c-.672 0-1.279.187-1.82.56-.542.364-.971.85-1.288 1.456a4.105 4.105 0 0 0-.476 1.96c0 .7.158 1.353.476 1.96a3.916 3.916 0 0 0 1.288 1.442 3.188 3.188 0 0 0 1.82.546c.485 0 .947-.103 1.386-.308.438-.215.816-.5 1.134-.854zm13.836 0 3.08 1.666a7.349 7.349 0 0 1-2.422 2.114 6.505 6.505 0 0 1-3.178.798 6.54 6.54 0 0 1-3.528-.994 7.444 7.444 0 0 1-2.534-2.66c-.626-1.12-.938-2.357-.938-3.71 0-1.027.182-1.983.546-2.87a7.493 7.493 0 0 1 1.498-2.352 7.02 7.02 0 0 1 2.24-1.596 6.532 6.532 0 0 1 2.716-.574c1.148 0 2.207.266 3.178.798a7.223 7.223 0 0 1 2.422 2.142l-3.08 1.652a3.426 3.426 0 0 0-1.162-.868 3.173 3.173 0 0 0-1.358-.308c-.672 0-1.279.187-1.82.56-.542.364-.971.85-1.288 1.456a4.105 4.105 0 0 0-.476 1.96c0 .7.158 1.353.476 1.96a3.916 3.916 0 0 0 1.288 1.442 3.188 3.188 0 0 0 1.82.546c.485 0 .947-.103 1.386-.308.438-.215.816-.5 1.134-.854zm11.316 4.578a6.54 6.54 0 0 1-3.528-.994 7.444 7.444 0 0 1-2.534-2.66c-.626-1.12-.938-2.357-.938-3.71 0-1.027.182-1.983.546-2.87a7.493 7.493 0 0 1 1.498-2.352 7.02 7.02 0 0 1 2.24-1.596 6.532 6.532 0 0 1 2.716-.574c1.288 0 2.459.331 3.514.994a7.27 7.27 0 0 1 2.534 2.674c.634 1.12.952 2.361.952 3.724 0 1.017-.182 1.97-.546 2.856a7.584 7.584 0 0 1-1.512 2.352 6.977 6.977 0 0 1-2.226 1.582 6.475 6.475 0 0 1-2.716.574zm0-3.416c.681 0 1.292-.182 1.834-.546a3.812 3.812 0 0 0 1.274-1.442c.317-.597.476-1.25.476-1.96 0-.728-.164-1.39-.49-1.988a3.752 3.752 0 0 0-1.302-1.442 3.145 3.145 0 0 0-1.792-.546c-.672 0-1.279.182-1.82.546-.542.364-.971.85-1.288 1.456a4.187 4.187 0 0 0-.476 1.974c0 .737.163 1.405.49 2.002.326.597.76 1.073 1.302 1.428.55.345 1.148.518 1.792.518zm8.291-2.128V41.5h3.416v7.924c0 .55.136 1.055.406 1.512.271.448.63.807 1.078 1.078a2.97 2.97 0 0 0 1.498.392c.56 0 1.064-.13 1.512-.392a3.13 3.13 0 0 0 1.078-1.078 2.91 2.91 0 0 0 .406-1.512V41.5h3.416l.014 14h-3.416l-.014-1.274a5.496 5.496 0 0 1-1.722 1.204 5.258 5.258 0 0 1-2.128.434 5.39 5.39 0 0 1-2.786-.742 5.83 5.83 0 0 1-2.016-2.002c-.494-.84-.742-1.773-.742-2.8zm28.451-3.668V55.5h-3.416v-7.952c0-.55-.136-1.05-.406-1.498a2.956 2.956 0 0 0-1.092-1.078 2.842 2.842 0 0 0-1.498-.406c-.551 0-1.055.135-1.512.406-.448.261-.808.62-1.078 1.078a2.912 2.912 0 0 0-.392 1.498V55.5h-3.416l-.014-14h3.416l.014 1.246a5.155 5.155 0 0 1 1.708-1.19 5.147 5.147 0 0 1 2.142-.448c1.017 0 1.946.252 2.786.756a5.566 5.566 0 0 1 2.002 2.002c.504.83.756 1.76.756 2.786zm10.293-1.736h-2.716V55.5h-3.416V44.916h-2.072V41.5h2.072v-4.396h3.416V41.5h2.716v3.416z" fill="#201F21"/>
    <path d="M50.72 122.5v-8.4h5.214v1.248h-3.966v2.028h3.192v1.248h-3.192v2.628h3.966v1.248H50.72zm6.54 0v-6h1.247v.636a2.255 2.255 0 0 1 1.746-.804c.428 0 .822.104 1.182.312.36.204.646.476.858.816.212-.34.494-.612.846-.816a2.289 2.289 0 0 1 1.176-.312c.444 0 .848.108 1.212.324.364.216.654.506.87.87.216.364.324.768.324 1.212v3.762h-1.248v-3.444c0-.264-.064-.506-.192-.726-.128-.22-.3-.398-.516-.534a1.324 1.324 0 0 0-.72-.204c-.264 0-.504.064-.72.192a1.435 1.435 0 0 0-.708 1.272v3.444H61.37v-3.444c0-.28-.064-.53-.192-.75a1.42 1.42 0 0 0-.522-.522 1.386 1.386 0 0 0-.72-.192c-.26 0-.5.068-.72.204a1.534 1.534 0 0 0-.516.534c-.128.22-.192.462-.192.726v3.444H57.26zm15.214-6h1.248v6h-1.254l-.048-.87a2.086 2.086 0 0 1-.714.744c-.3.188-.654.282-1.062.282-.44 0-.854-.082-1.242-.246-.388-.168-.73-.4-1.026-.696a3.172 3.172 0 0 1-.93-2.268c0-.428.08-.83.24-1.206.16-.38.382-.712.666-.996.284-.284.612-.506.984-.666a2.983 2.983 0 0 1 1.206-.246c.436 0 .82.1 1.152.3.336.196.614.448.834.756l-.054-.888zm-1.86 4.95c.352 0 .66-.086.924-.258.264-.176.468-.412.612-.708a2.17 2.17 0 0 0 .222-.984c0-.364-.074-.694-.222-.99a1.757 1.757 0 0 0-.618-.702 1.598 1.598 0 0 0-.918-.264c-.348 0-.666.088-.954.264a1.958 1.958 0 0 0-.936 1.692c0 .364.086.694.258.99.176.292.406.526.69.702.288.172.602.258.942.258zm4.305-4.95h1.248v6H74.92v-6zm.636-.87a.662.662 0 0 1-.48-.186.624.624 0 0 1-.192-.468c0-.184.064-.338.192-.462a.644.644 0 0 1 .474-.192c.184 0 .34.064.468.192a.617.617 0 0 1 .192.462.624.624 0 0 1-.192.468.627.627 0 0 1-.462.186zm2.071 6.87v-9h1.248v9h-1.248z" fill="#44546F"/>
    <rect x="50" y="130.5" width="420" height="52" rx="3" fill="#fff"/>
    <rect x="51" y="131.5" width="418" height="50" rx="2" stroke="#091E42" stroke-opacity=".14" stroke-width="2"/>
    <path d="m66.184 160.228 1.488.808a4.055 4.055 0 0 1-1.384 1.216 3.701 3.701 0 0 1-1.808.456 3.735 3.735 0 0 1-2.016-.568 4.259 4.259 0 0 1-1.448-1.52 4.276 4.276 0 0 1-.536-2.12c0-.587.104-1.133.312-1.64.208-.512.493-.96.856-1.344a4.026 4.026 0 0 1 1.28-.912 3.73 3.73 0 0 1 1.552-.328c.65 0 1.253.152 1.808.456.56.304 1.021.712 1.384 1.224l-1.488.808a2.26 2.26 0 0 0-.784-.608 2.096 2.096 0 0 0-.92-.216c-.437 0-.835.12-1.192.36a2.55 2.55 0 0 0-.84.936 2.665 2.665 0 0 0-.304 1.264c0 .453.104.875.312 1.264.208.384.488.693.84.928a2.11 2.11 0 0 0 1.184.352c.33 0 .645-.075.944-.224.299-.149.552-.347.76-.592zm8.969-5.728h1.664v8h-1.672l-.064-1.16a2.782 2.782 0 0 1-.952.992c-.4.251-.872.376-1.416.376a4.203 4.203 0 0 1-1.656-.328 4.368 4.368 0 0 1-1.368-.928 4.228 4.228 0 0 1-1.24-3.024c0-.571.106-1.107.32-1.608a4.154 4.154 0 0 1 2.2-2.216 3.972 3.972 0 0 1 1.608-.328c.581 0 1.093.133 1.536.4.448.261.818.597 1.112 1.008l-.072-1.184zm-2.48 6.6c.47 0 .88-.115 1.232-.344.352-.235.624-.549.816-.944.197-.395.296-.832.296-1.312 0-.485-.099-.925-.296-1.32a2.338 2.338 0 0 0-.824-.936c-.347-.235-.755-.352-1.224-.352a2.39 2.39 0 0 0-1.272.352 2.612 2.612 0 0 0-1.248 2.256c0 .485.114.925.344 1.32.234.389.541.701.92.936.384.229.802.344 1.256.344zm8.14 1.552a4.462 4.462 0 0 1-1.232-.256 3.623 3.623 0 0 1-1.056-.584 2.433 2.433 0 0 1-.672-.88l1.416-.608c.07.144.19.285.36.424a2.145 2.145 0 0 0 1.352.472c.25 0 .483-.035.696-.104.219-.075.397-.187.536-.336a.76.76 0 0 0 .208-.536c0-.235-.08-.416-.24-.544a1.555 1.555 0 0 0-.584-.304c-.234-.069-.47-.136-.704-.2a7.092 7.092 0 0 1-1.44-.48 2.91 2.91 0 0 1-1.032-.792c-.256-.325-.384-.723-.384-1.192 0-.512.139-.955.416-1.328.278-.379.64-.669 1.088-.872a3.502 3.502 0 0 1 1.448-.304c.64 0 1.227.136 1.76.408.534.272.942.645 1.224 1.12l-1.32.784a1.3 1.3 0 0 0-.36-.432 1.942 1.942 0 0 0-.544-.304 1.98 1.98 0 0 0-.632-.136 2.189 2.189 0 0 0-.76.096c-.23.069-.413.181-.552.336a.854.854 0 0 0-.208.592c0 .235.083.411.248.528.165.112.374.203.624.272.256.069.518.147.784.232.475.149.92.333 1.336.552.416.213.752.477 1.008.792.256.315.379.699.368 1.152 0 .501-.152.941-.456 1.32a2.814 2.814 0 0 1-1.168.864c-.48.197-.99.28-1.528.248zm11.722-5.168v5.016h-1.664v-4.608a1.86 1.86 0 0 0-.264-.976 1.9 1.9 0 0 0-.696-.696 1.834 1.834 0 0 0-.976-.264c-.352 0-.675.088-.968.264a1.962 1.962 0 0 0-.704.696 1.86 1.86 0 0 0-.264.976v4.608h-1.664v-12h1.664v4.848a3.026 3.026 0 0 1 2.336-1.072c.592 0 1.13.144 1.616.432.485.288.87.675 1.152 1.16.288.485.432 1.024.432 1.616zm1.66 5.016v-12h1.663v12h-1.664zm6.988.208a3.735 3.735 0 0 1-2.016-.568 4.26 4.26 0 0 1-1.448-1.52 4.276 4.276 0 0 1-.536-2.12c0-.587.104-1.133.312-1.64.208-.512.493-.96.856-1.344a4.026 4.026 0 0 1 1.28-.912 3.728 3.728 0 0 1 1.552-.328c.613 0 1.176.128 1.688.384.512.251.949.6 1.312 1.048.363.443.629.955.8 1.536.171.576.221 1.189.152 1.84h-6.168c.07.368.203.701.4 1 .203.293.459.525.768.696.315.171.664.259 1.048.264a2.07 2.07 0 0 0 1.104-.304c.336-.203.611-.483.824-.84l1.688.392a4.219 4.219 0 0 1-1.448 1.744 3.713 3.713 0 0 1-2.168.672zm-2.272-4.896h4.544a2.32 2.32 0 0 0-.408-1.04 2.338 2.338 0 0 0-.808-.744 2.055 2.055 0 0 0-1.056-.28c-.379 0-.731.091-1.056.272-.32.181-.587.429-.8.744a2.706 2.706 0 0 0-.416 1.048zm12.56-3.312h1.776l-4.384 12h-1.768l1.448-4-2.872-8h1.816l1.888 5.72 2.096-5.72zm9.62 9.824a7 7 0 0 1-2.56-.464 6.417 6.417 0 0 1-2.088-1.296 6.038 6.038 0 0 1-1.408-1.968 6.142 6.142 0 0 1-.504-2.504 6.467 6.467 0 0 1 1.912-4.632 6.516 6.516 0 0 1 2.096-1.408 6.4 6.4 0 0 1 2.552-.512c.906 0 1.757.171 2.552.512.794.341 1.49.813 2.088 1.416a6.603 6.603 0 0 1 1.4 2.096c.341.789.512 1.632.512 2.528 0 .485-.062.965-.184 1.44a4.6 4.6 0 0 1-.528 1.28c-.23.379-.512.683-.848.912-.336.224-.72.336-1.152.336-.32 0-.643-.069-.968-.208a2.6 2.6 0 0 1-.824-.576 1.53 1.53 0 0 1-.416-.808c-.208.245-.47.443-.784.592-.31.144-.662.216-1.056.216a3.116 3.116 0 0 1-1.6-.424 3.31 3.31 0 0 1-1.152-1.152 3.132 3.132 0 0 1-.424-1.608c0-.587.141-1.12.424-1.6.288-.48.672-.861 1.152-1.144a3.075 3.075 0 0 1 1.6-.432c.373 0 .736.067 1.088.2.357.133.634.317.832.552v-.592l1.272.248v4.336c0 .219.072.397.216.536.149.133.328.2.536.2.272 0 .49-.125.656-.376.17-.256.296-.563.376-.92.08-.363.12-.699.12-1.008 0-.677-.128-1.312-.384-1.904a4.92 4.92 0 0 0-1.064-1.56 4.874 4.874 0 0 0-1.56-1.048 4.732 4.732 0 0 0-1.88-.376c-.672 0-1.304.128-1.896.384-.592.251-1.115.6-1.568 1.048a4.98 4.98 0 0 0-1.056 1.56 4.77 4.77 0 0 0-.376 1.896c0 .677.125 1.296.376 1.856.25.56.6 1.043 1.048 1.448.453.4.973.712 1.56.936a5.357 5.357 0 0 0 1.912.336v1.656zm-.08-4.312c.357 0 .669-.093.936-.28.266-.187.474-.429.624-.728.149-.304.224-.624.224-.96 0-.336-.072-.643-.216-.92a1.726 1.726 0 0 0-.616-.68 1.69 1.69 0 0 0-.952-.264c-.352 0-.675.085-.968.256-.288.171-.52.403-.696.696a1.845 1.845 0 0 0-.256.96c0 .357.088.683.264.976.176.288.408.517.696.688.293.171.613.256.96.256zm8.23 2.488v-8h1.664v.848a3.009 3.009 0 0 1 2.328-1.072c.571 0 1.096.139 1.576.416.48.272.862.635 1.144 1.088a3.205 3.205 0 0 1 1.128-1.088 3.058 3.058 0 0 1 1.568-.416c.592 0 1.131.144 1.616.432.486.288.872.675 1.16 1.16.288.485.432 1.024.432 1.616v5.016h-1.664v-4.592c0-.352-.085-.675-.256-.968a2.04 2.04 0 0 0-.688-.712 1.768 1.768 0 0 0-.96-.272c-.352 0-.672.085-.96.256a1.921 1.921 0 0 0-.944 1.696v4.592h-1.664v-4.592c0-.373-.085-.707-.256-1a1.89 1.89 0 0 0-.696-.696 1.845 1.845 0 0 0-.96-.256c-.346 0-.666.091-.96.272a2.048 2.048 0 0 0-.688.712c-.17.293-.256.616-.256.968v4.592h-1.664zm19.355-8h1.776l-4.384 12h-1.768l1.448-4-2.872-8h1.816l1.888 5.72 2.096-5.72zm8.924-4h1.664v12h-1.664v-1.176a3.084 3.084 0 0 1-1.024 1.008c-.421.251-.915.376-1.48.376a4.07 4.07 0 0 1-1.632-.328 4.35 4.35 0 0 1-1.344-.904 4.35 4.35 0 0 1-.904-1.344 4.07 4.07 0 0 1-.328-1.632c0-.581.109-1.125.328-1.632.219-.512.52-.96.904-1.344a4.288 4.288 0 0 1 1.344-.912 4.07 4.07 0 0 1 1.632-.328c.565 0 1.059.128 1.48.384.421.251.763.581 1.024.992v-5.16zm-2.488 10.6c.469 0 .88-.115 1.232-.344.352-.235.624-.549.816-.944.197-.395.296-.832.296-1.312 0-.485-.099-.925-.296-1.32a2.335 2.335 0 0 0-.824-.936c-.347-.235-.755-.352-1.224-.352a2.39 2.39 0 0 0-1.272.352 2.612 2.612 0 0 0-1.248 2.256c0 .485.115.925.344 1.32.235.389.541.701.92.936a2.41 2.41 0 0 0 1.256.344zm9.479 1.608a3.735 3.735 0 0 1-2.016-.568 4.267 4.267 0 0 1-1.448-1.52 4.279 4.279 0 0 1-.536-2.12c0-.587.104-1.133.312-1.64.208-.512.494-.96.856-1.344a4.029 4.029 0 0 1 1.28-.912 3.733 3.733 0 0 1 1.552-.328c.736 0 1.406.189 2.008.568a4.151 4.151 0 0 1 1.448 1.528c.363.64.544 1.349.544 2.128 0 .581-.104 1.125-.312 1.632a4.326 4.326 0 0 1-.864 1.344 3.973 3.973 0 0 1-1.272.904c-.48.219-.997.328-1.552.328zm0-1.664c.443 0 .84-.117 1.192-.352s.63-.544.832-.928c.208-.389.312-.811.312-1.264 0-.464-.106-.891-.32-1.28a2.479 2.479 0 0 0-.84-.928 2.071 2.071 0 0 0-1.176-.352c-.437 0-.834.117-1.192.352a2.55 2.55 0 0 0-.84.936 2.72 2.72 0 0 0-.304 1.272 2.61 2.61 0 0 0 1.168 2.208 2.16 2.16 0 0 0 1.168.336zm5.293 1.456v-8h1.664v.848a2.999 2.999 0 0 1 2.328-1.072 3.1 3.1 0 0 1 1.576.416c.48.272.861.635 1.144 1.088a3.188 3.188 0 0 1 1.128-1.088 3.052 3.052 0 0 1 1.568-.416c.592 0 1.13.144 1.616.432.485.288.872.675 1.16 1.16.288.485.432 1.024.432 1.616v5.016h-1.664v-4.592c0-.352-.086-.675-.256-.968a2.048 2.048 0 0 0-.688-.712 1.768 1.768 0 0 0-.96-.272c-.352 0-.672.085-.96.256a1.913 1.913 0 0 0-.688.696 1.948 1.948 0 0 0-.256 1v4.592h-1.664v-4.592a1.904 1.904 0 0 0-1.912-1.952c-.347 0-.667.091-.96.272a2.04 2.04 0 0 0-.688.712 1.886 1.886 0 0 0-.256.968v4.592h-1.664zm20.286-8h1.664v8h-1.672l-.064-1.16a2.776 2.776 0 0 1-.952.992c-.4.251-.872.376-1.416.376a4.208 4.208 0 0 1-1.656-.328 4.377 4.377 0 0 1-1.368-.928 4.37 4.37 0 0 1-.912-1.36 4.24 4.24 0 0 1-.328-1.664 4.139 4.139 0 0 1 2.52-3.824 3.977 3.977 0 0 1 1.608-.328c.582 0 1.094.133 1.536.4.448.261.819.597 1.112 1.008l-.072-1.184zm-2.48 6.6c.47 0 .88-.115 1.232-.344.352-.235.624-.549.816-.944.198-.395.296-.832.296-1.312 0-.485-.098-.925-.296-1.32a2.335 2.335 0 0 0-.824-.936c-.346-.235-.754-.352-1.224-.352a2.39 2.39 0 0 0-1.272.352 2.612 2.612 0 0 0-1.248 2.256c0 .485.115.925.344 1.32.235.389.542.701.92.936a2.41 2.41 0 0 0 1.256.344zm5.741-6.6h1.664v8h-1.664v-8zm.848-1.16a.883.883 0 0 1-.64-.248.83.83 0 0 1-.256-.624c0-.245.085-.451.256-.616a.856.856 0 0 1 .632-.256c.245 0 .453.085.624.256.17.165.256.371.256.616a.834.834 0 0 1-.256.624.84.84 0 0 1-.616.248zm9.883 4.144v5.016h-1.664v-4.608a1.86 1.86 0 0 0-.264-.976 1.904 1.904 0 0 0-.696-.696 1.833 1.833 0 0 0-.976-.264c-.352 0-.675.088-.968.264a1.965 1.965 0 0 0-.704.696 1.86 1.86 0 0 0-.264.976v4.608h-1.664v-8h1.664v.848a3.026 3.026 0 0 1 2.336-1.072c.592 0 1.131.144 1.616.432a3.21 3.21 0 0 1 1.152 1.16c.288.485.432 1.024.432 1.616zm2.149 5.224a.862.862 0 0 1-.872-.88c0-.24.082-.445.248-.616a.846.846 0 0 1 .624-.256c.245 0 .453.085.624.256.17.171.256.376.256.616a.853.853 0 0 1-.256.624.849.849 0 0 1-.624.256zm7.922-2.48 1.488.808a4.057 4.057 0 0 1-1.384 1.216 3.704 3.704 0 0 1-1.808.456 3.735 3.735 0 0 1-2.016-.568 4.25 4.25 0 0 1-1.448-1.52 4.268 4.268 0 0 1-.536-2.12c0-.587.104-1.133.312-1.64a4.28 4.28 0 0 1 .856-1.344 4.018 4.018 0 0 1 1.28-.912 3.726 3.726 0 0 1 1.552-.328c.65 0 1.253.152 1.808.456.56.304 1.021.712 1.384 1.224l-1.488.808a2.267 2.267 0 0 0-.784-.608 2.1 2.1 0 0 0-.92-.216c-.438 0-.835.12-1.192.36a2.55 2.55 0 0 0-.84.936 2.661 2.661 0 0 0-.304 1.264c0 .453.104.875.312 1.264.208.384.488.693.84.928.357.235.752.352 1.184.352.33 0 .645-.075.944-.224.298-.149.552-.347.76-.592zm6.265 2.48a3.735 3.735 0 0 1-2.016-.568 4.25 4.25 0 0 1-1.448-1.52 4.268 4.268 0 0 1-.536-2.12c0-.587.104-1.133.312-1.64a4.28 4.28 0 0 1 .856-1.344 4.018 4.018 0 0 1 1.28-.912 3.726 3.726 0 0 1 1.552-.328c.736 0 1.405.189 2.008.568a4.16 4.16 0 0 1 1.448 1.528c.362.64.544 1.349.544 2.128 0 .581-.104 1.125-.312 1.632a4.326 4.326 0 0 1-.864 1.344 3.995 3.995 0 0 1-1.272.904c-.48.219-.998.328-1.552.328zm0-1.664a2.1 2.1 0 0 0 1.192-.352 2.5 2.5 0 0 0 .832-.928c.208-.389.312-.811.312-1.264 0-.464-.107-.891-.32-1.28a2.479 2.479 0 0 0-.84-.928 2.071 2.071 0 0 0-1.176-.352 2.12 2.12 0 0 0-1.192.352 2.55 2.55 0 0 0-.84.936 2.707 2.707 0 0 0-.304 1.272 2.599 2.599 0 0 0 1.168 2.208c.357.224.746.336 1.168.336zm5.292 1.456v-8h1.664v.848a2.999 2.999 0 0 1 2.328-1.072c.571 0 1.096.139 1.576.416.48.272.861.635 1.144 1.088a3.205 3.205 0 0 1 1.128-1.088 3.055 3.055 0 0 1 1.568-.416c.592 0 1.131.144 1.616.432.485.288.872.675 1.16 1.16.288.485.432 1.024.432 1.616v5.016h-1.664v-4.592c0-.352-.085-.675-.256-.968a2.048 2.048 0 0 0-.688-.712 1.768 1.768 0 0 0-.96-.272c-.352 0-.672.085-.96.256a1.921 1.921 0 0 0-.944 1.696v4.592h-1.664v-4.592a1.904 1.904 0 0 0-1.912-1.952c-.347 0-.667.091-.96.272a2.048 2.048 0 0 0-.688.712 1.886 1.886 0 0 0-.256.968v4.592h-1.664z" fill="#626F86"/>
    <path d="M50.72 218.5v-8.4h2.892c.452 0 .86.112 1.224.336.368.224.66.526.876.906.22.38.33.8.33 1.26 0 .468-.112.892-.336 1.272-.22.376-.514.676-.882.9a2.287 2.287 0 0 1-1.212.336h-1.644v3.39H50.72zm1.248-4.638h1.518c.24 0 .458-.06.654-.18.2-.12.358-.28.474-.48.12-.2.18-.426.18-.678 0-.252-.06-.478-.18-.678a1.27 1.27 0 0 0-.474-.48 1.228 1.228 0 0 0-.654-.18h-1.518v2.676zM61.4 212.5h1.248v6h-1.254l-.048-.87a2.086 2.086 0 0 1-.714.744c-.3.188-.654.282-1.062.282-.44 0-.854-.082-1.242-.246-.388-.168-.73-.4-1.026-.696a3.172 3.172 0 0 1-.93-2.268c0-.428.08-.83.24-1.206.16-.38.382-.712.666-.996.284-.284.612-.506.984-.666a2.983 2.983 0 0 1 1.206-.246c.436 0 .82.1 1.152.3.336.196.614.448.834.756l-.054-.888zm-1.86 4.95c.352 0 .66-.086.924-.258.264-.176.468-.412.612-.708a2.17 2.17 0 0 0 .222-.984c0-.364-.074-.694-.222-.99a1.757 1.757 0 0 0-.618-.702 1.598 1.598 0 0 0-.918-.264c-.348 0-.666.088-.954.264a1.958 1.958 0 0 0-.936 1.692c0 .364.086.694.258.99.176.292.406.526.69.702.288.172.602.258.942.258zm6.105 1.164a3.337 3.337 0 0 1-.924-.192 2.712 2.712 0 0 1-.792-.438 1.821 1.821 0 0 1-.504-.66l1.062-.456a.963.963 0 0 0 .27.318 1.603 1.603 0 0 0 1.014.354c.188 0 .362-.026.522-.078a.96.96 0 0 0 .402-.252.57.57 0 0 0 .156-.402.492.492 0 0 0-.18-.408 1.167 1.167 0 0 0-.438-.228 26.101 26.101 0 0 0-.528-.15 5.348 5.348 0 0 1-1.08-.36 2.182 2.182 0 0 1-.774-.594c-.192-.244-.288-.542-.288-.894 0-.384.104-.716.312-.996.208-.284.48-.502.816-.654a2.63 2.63 0 0 1 1.086-.228c.48 0 .92.102 1.32.306.4.204.706.484.918.84l-.99.588a.975.975 0 0 0-.27-.324 1.45 1.45 0 0 0-.408-.228 1.478 1.478 0 0 0-.474-.102 1.654 1.654 0 0 0-.57.072.885.885 0 0 0-.414.252.64.64 0 0 0-.156.444c0 .176.062.308.186.396.124.084.28.152.468.204.192.052.388.11.588.174.356.112.69.25 1.002.414.312.16.564.358.756.594.192.236.284.524.276.864 0 .376-.114.706-.342.99-.224.284-.516.5-.876.648-.36.148-.742.21-1.146.186zm5.191 0a3.337 3.337 0 0 1-.924-.192 2.712 2.712 0 0 1-.792-.438 1.821 1.821 0 0 1-.504-.66l1.062-.456a.963.963 0 0 0 .27.318 1.603 1.603 0 0 0 1.014.354c.188 0 .362-.026.522-.078a.96.96 0 0 0 .402-.252.57.57 0 0 0 .156-.402.492.492 0 0 0-.18-.408 1.167 1.167 0 0 0-.438-.228 26.101 26.101 0 0 0-.528-.15 5.348 5.348 0 0 1-1.08-.36 2.182 2.182 0 0 1-.774-.594c-.192-.244-.288-.542-.288-.894 0-.384.104-.716.312-.996.208-.284.48-.502.816-.654a2.63 2.63 0 0 1 1.086-.228c.48 0 .92.102 1.32.306.4.204.706.484.918.84l-.99.588a.975.975 0 0 0-.27-.324 1.45 1.45 0 0 0-.408-.228 1.478 1.478 0 0 0-.474-.102 1.654 1.654 0 0 0-.57.072.885.885 0 0 0-.414.252.64.64 0 0 0-.156.444c0 .176.062.308.186.396.124.084.28.152.468.204.192.052.388.11.588.174.356.112.69.25 1.002.414.312.16.564.358.756.594.192.236.284.524.276.864 0 .376-.114.706-.342.99-.224.284-.516.5-.876.648-.36.148-.742.21-1.146.186zm6.096-.114H75.69l-2.01-6h1.224l1.416 4.212 1.404-4.212h1.26l1.404 4.212 1.41-4.212h1.224l-2.004 6h-1.254l-1.416-4.242-1.416 4.242zm9.428.156a2.803 2.803 0 0 1-1.512-.426 3.194 3.194 0 0 1-1.086-1.14 3.206 3.206 0 0 1-.402-1.59c0-.44.078-.85.234-1.23.156-.384.37-.72.642-1.008.276-.292.596-.52.96-.684a2.8 2.8 0 0 1 1.164-.246c.552 0 1.054.142 1.506.426.456.284.818.666 1.086 1.146a3.18 3.18 0 0 1 .408 1.596c0 .436-.078.844-.234 1.224a3.25 3.25 0 0 1-.648 1.008c-.272.288-.59.514-.954.678-.36.164-.748.246-1.164.246zm0-1.248c.332 0 .63-.088.894-.264.264-.176.472-.408.624-.696a1.98 1.98 0 0 0 .234-.948c0-.348-.08-.668-.24-.96a1.859 1.859 0 0 0-.63-.696 1.555 1.555 0 0 0-.882-.264c-.328 0-.626.088-.894.264-.264.176-.474.41-.63.702-.152.292-.228.61-.228.954a1.955 1.955 0 0 0 .876 1.656c.268.168.56.252.876.252zm3.97 1.092v-6h1.247v.636a2.27 2.27 0 0 1 1.752-.804c.224 0 .446.03.666.09l-.498 1.26a1.296 1.296 0 0 0-.468-.09c-.264 0-.506.066-.726.198-.22.128-.396.302-.528.522-.132.22-.198.464-.198.732v3.456H90.33zm8.752-9h1.247v9h-1.247v-.882a2.313 2.313 0 0 1-.768.756 2.13 2.13 0 0 1-1.11.282c-.436 0-.844-.082-1.224-.246a3.265 3.265 0 0 1-1.008-.678 3.265 3.265 0 0 1-.678-1.008 3.056 3.056 0 0 1-.246-1.224c0-.436.081-.844.245-1.224a3.214 3.214 0 0 1 1.686-1.692c.38-.164.788-.246 1.225-.246.424 0 .794.096 1.11.288.316.188.572.436.768.744v-3.87zm-1.866 7.95c.352 0 .66-.086.924-.258.263-.176.468-.412.611-.708a2.17 2.17 0 0 0 .222-.984c0-.364-.073-.694-.222-.99a1.757 1.757 0 0 0-.618-.702 1.598 1.598 0 0 0-.917-.264c-.348 0-.666.088-.954.264a1.958 1.958 0 0 0-.936 1.692c0 .364.085.694.257.99.177.292.407.526.69.702.288.172.603.258.943.258z" fill="#44546F"/>
    <rect x="50" y="226.5" width="420" height="48" rx="3" fill="#fff"/>
    <rect x="51" y="227.5" width="418" height="46" rx="2" stroke="#091E42" stroke-opacity=".14" stroke-width="2"/>
    <path d="m61.484 249.529-.602-.441.868-1.197-1.4-.455.224-.707 1.414.448V245.7h.749v1.477l1.407-.448.231.707-1.414.455.875 1.197-.609.441-.868-1.204-.875 1.204zm4.935 0-.602-.441.869-1.197-1.4-.455.224-.707 1.413.448V245.7h.75v1.477l1.406-.448.232.707-1.415.455.876 1.197-.61.441-.868-1.204-.874 1.204zm4.936 0-.602-.441.868-1.197-1.4-.455.224-.707 1.414.448V245.7h.75v1.477l1.406-.448.231.707-1.414.455.875 1.197-.609.441-.868-1.204-.875 1.204zm4.936 0-.602-.441.868-1.197-1.4-.455.224-.707 1.414.448V245.7h.749v1.477l1.407-.448.23.707-1.413.455.875 1.197-.61.441-.867-1.204-.875 1.204zm4.935 0-.602-.441.868-1.197-1.4-.455.224-.707 1.414.448V245.7h.75v1.477l1.406-.448.231.707-1.414.455.875 1.197-.609.441-.868-1.204-.875 1.204zm4.936 0-.602-.441.868-1.197-1.4-.455.224-.707 1.414.448V245.7h.749v1.477l1.407-.448.23.707-1.413.455.875 1.197-.61.441-.867-1.204-.875 1.204zm4.935 0-.602-.441.868-1.197-1.4-.455.224-.707 1.414.448V245.7h.75v1.477l1.406-.448.231.707-1.414.455.875 1.197-.609.441-.868-1.204-.875 1.204zm4.936 0-.602-.441.868-1.197-1.4-.455.224-.707 1.414.448V245.7h.749v1.477l1.407-.448.23.707-1.413.455.875 1.197-.61.441-.867-1.204-.875 1.204zm4.935 0-.602-.441.868-1.197-1.4-.455.224-.707 1.414.448V245.7h.749v1.477l1.407-.448.231.707-1.414.455.875 1.197-.609.441-.868-1.204-.875 1.204zm4.936 0-.602-.441.868-1.197-1.4-.455.224-.707 1.414.448V245.7h.749v1.477l1.407-.448.231.707-1.414.455.875 1.197-.609.441-.868-1.204-.875 1.204zm4.935 0-.602-.441.868-1.197-1.4-.455.224-.707 1.414.448V245.7h.749v1.477l1.407-.448.231.707-1.414.455.875 1.197-.609.441-.868-1.204-.875 1.204zm4.936 0-.602-.441.868-1.197-1.4-.455.224-.707 1.414.448V245.7h.749v1.477l1.407-.448.231.707-1.414.455.875 1.197-.609.441-.868-1.204-.875 1.204zm4.936 0-.602-.441.868-1.197-1.4-.455.224-.707 1.414.448V245.7h.749v1.477l1.407-.448.231.707-1.414.455.875 1.197-.609.441-.868-1.204-.875 1.204zm4.935 0-.602-.441.868-1.197-1.4-.455.224-.707 1.414.448V245.7h.749v1.477l1.407-.448.231.707-1.414.455.875 1.197-.609.441-.868-1.204-.875 1.204zm4.936 0-.602-.441.868-1.197-1.4-.455.224-.707 1.414.448V245.7h.749v1.477l1.407-.448.231.707-1.414.455.875 1.197-.609.441-.868-1.204-.875 1.204z" fill="#626F86"/>
    <path opacity=".4" d="M440.938 248.363a10.998 10.998 0 0 0-1.223-1.583l-2.827 2.828c.09.277.142.577.142.892 0 1.68-1.357 3.03-3.03 3.03-.315 0-.615-.052-.892-.142l-2.595 2.595c1.095.615 2.28.937 3.487.937 1.335 0 2.633-.39 3.818-1.117 1.185-.735 2.25-1.808 3.12-3.173.75-1.17.75-3.09 0-4.267z" fill="#292D32" fill-opacity=".6"/>
    <path d="m435.515 248.985-3.03 3.03c-.383-.39-.63-.93-.63-1.515 0-1.178.96-2.145 2.145-2.145.585 0 1.125.247 1.515.63z" fill="#292D32" fill-opacity=".6"/>
    <path opacity=".4" d="m438.688 245.813-2.543 2.542a2.99 2.99 0 0 0-2.145-.885 3.027 3.027 0 0 0-3.03 3.03c0 .84.338 1.598.885 2.145l-2.535 2.543h-.008c-.832-.675-1.597-1.538-2.25-2.558-.75-1.177-.75-3.09 0-4.267.871-1.365 1.935-2.438 3.12-3.173 1.185-.72 2.483-1.117 3.818-1.117 1.672 0 3.292.615 4.688 1.74z" fill="#292D32" fill-opacity=".6"/>
    <path d="M436.145 250.5a2.15 2.15 0 0 1-2.145 2.145c-.045 0-.083 0-.128-.015l2.258-2.258c.015.045.015.083.015.128zM441.327 243.172a.579.579 0 0 0-.817 0l-13.838 13.845a.58.58 0 0 0 0 .818.566.566 0 0 0 .81-.008l13.845-13.845a.557.557 0 0 0 0-.81z" fill="#292D32" fill-opacity=".6"/>
    <rect x="50" y="298.5" width="18" height="18" rx="2" fill="url(#ncogwkr7ia)"/>
    <path d="m54 308.094 3.35 3.35M57.594 311.198l6.699-6.698" stroke="#fff" stroke-width="2" stroke-linecap="round"/>
    <path d="M86.612 304.092c1.575 0 2.513.707 2.639.833l-.567.896a3.052 3.052 0 0 0-1.967-.714c-1.092 0-1.771.469-1.771 1.274 0 .819.805 1.281 1.988 1.792 1.267.546 2.653 1.337 2.653 2.954 0 1.568-1.365 2.541-3.157 2.541-1.68 0-2.954-.819-3.066-.924l.602-.945c.231.189 1.218.84 2.485.84 1.302 0 1.981-.658 1.981-1.568 0-1.05-1.078-1.603-2.303-2.156-1.267-.574-2.317-1.246-2.317-2.59 0-1.316 1.246-2.233 2.8-2.233zm9.12 9.408v-1.141c-.105.357-.896 1.309-2.177 1.309-1.59 0-2.856-1.183-2.856-3.038 0-1.848 1.267-3.045 2.856-3.045 1.267 0 2.065.861 2.17 1.274v-1.106h1.092v5.747h-1.085zm-3.941-2.87c0 1.295.966 2.107 1.988 2.107 1.106 0 1.925-.826 1.925-2.107 0-1.274-.82-2.114-1.925-2.114-1.022 0-1.988.819-1.988 2.114zm6.109-2.877h1.19l1.939 4.718 1.932-4.718h1.183l-2.464 5.747h-1.302l-2.478-5.747zm8.116 3.094c.014 1.064.665 1.946 1.967 1.946 1.078 0 1.659-.588 1.876-.959l.581.693c-.483.707-1.183 1.141-2.527 1.141-1.855 0-2.982-1.288-2.982-3.108 0-1.68 1.064-2.975 2.905-2.975 1.68 0 2.772 1.12 2.772 2.877 0 .077-.014.315-.021.385h-4.571zm3.493-.875c-.028-.595-.441-1.519-1.659-1.519-1.281 0-1.736.882-1.792 1.519h3.451zm12.694-2.387c1.274 0 2.009.819 2.009 2.576v3.339h-1.092v-3.101c0-1.302-.301-1.939-1.246-1.939-.742 0-1.498.588-1.498 1.939v3.101h-1.036v-3.101c0-1.302-.476-1.939-1.267-1.939-.749 0-1.47.56-1.47 1.939v3.101h-1.099v-5.747h1.099v.889c.147-.434.882-1.057 1.876-1.057 1.05 0 1.554.784 1.701 1.337.189-.616.98-1.337 2.023-1.337zm6.068 4.893 1.981-4.725h1.12l-3.871 8.659h-1.127l1.302-2.912-2.366-5.747h1.134l1.827 4.725zm8.668 1.022h-1.12v-9.632h1.12v9.632zm4.43.168c-1.764 0-3.024-1.309-3.024-3.024s1.26-3.059 3.024-3.059c1.757 0 2.996 1.344 2.996 3.059s-1.239 3.024-2.996 3.024zm0-.959c1.169 0 1.932-.889 1.932-2.072 0-1.176-.763-2.093-1.932-2.093-1.176 0-1.953.917-1.953 2.093 0 1.183.777 2.072 1.953 2.072zm7.071 3.864c-1.372 0-2.338-.469-2.807-1.127l.749-.7c.259.364.735.896 2.023.896 1.26 0 1.96-.903 1.96-2.051v-1.232c-.105.357-.896 1.309-2.177 1.309-1.589 0-2.856-1.183-2.856-3.038 0-1.848 1.267-3.045 2.856-3.045 1.267 0 2.065.861 2.17 1.274v-1.106h1.092v5.908c0 1.904-1.337 2.912-3.01 2.912zm-2.016-5.943c0 1.295.966 2.107 1.988 2.107 1.106 0 1.925-.826 1.925-2.107 0-1.274-.819-2.114-1.925-2.114-1.022 0-1.988.819-1.988 2.114zm7.451-4.942a.744.744 0 0 1-.749-.742c0-.42.336-.756.749-.756.406 0 .763.336.763.756 0 .406-.35.742-.763.742zm-.567 7.812v-5.747h1.106v5.747h-1.106zm6.14-5.915c1.113 0 2.31.679 2.31 2.317v3.598h-1.12v-3.367c0-1.176-.616-1.68-1.47-1.68-.868 0-1.722.805-1.722 1.862v3.185h-1.113v-5.747h1.113v1.043c.105-.483.973-1.211 2.002-1.211zm6.06 0c.868 0 1.624.329 1.876.532l-.455.714c-.203-.168-.721-.441-1.323-.441-.686 0-1.225.273-1.225.791 0 .497.532.77 1.344.966.959.238 1.82.609 1.82 1.708 0 1.316-1.211 1.813-2.429 1.813-1.043 0-1.799-.392-2.072-.63l.469-.805c.238.238.833.574 1.547.574.805 0 1.365-.378 1.365-.945 0-.637-.609-.847-1.323-1.015-.903-.217-1.806-.658-1.806-1.694 0-.973 1.029-1.568 2.212-1.568z" fill="#000"/>
    <rect x="50" y="364.5" width="420" height="48" rx="3" fill="url(#c2xwt3rehb)"/>
    <path d="M244.454 393.5v-9.8h1.176v8.624h4.389v1.176h-5.565zm9.506.182a3.273 3.273 0 0 1-1.764-.497 3.726 3.726 0 0 1-1.267-1.33 3.736 3.736 0 0 1-.469-1.855c0-.513.091-.992.273-1.435.182-.448.432-.84.749-1.176a3.5 3.5 0 0 1 1.12-.798 3.273 3.273 0 0 1 1.358-.287c.644 0 1.23.166 1.757.497.532.331.954.777 1.267 1.337.317.56.476 1.181.476 1.862 0 .509-.091.985-.273 1.428a3.8 3.8 0 0 1-.756 1.176c-.317.336-.688.6-1.113.791-.42.191-.873.287-1.358.287zm0-1.176c.439 0 .833-.114 1.183-.343.355-.233.632-.539.833-.917.205-.383.308-.798.308-1.246 0-.457-.105-.877-.315-1.26a2.465 2.465 0 0 0-.833-.917 2.1 2.1 0 0 0-1.176-.343c-.439 0-.833.117-1.183.35-.35.229-.628.534-.833.917-.205.383-.308.8-.308 1.253 0 .467.105.891.315 1.274.21.378.492.679.847.903.355.219.742.329 1.162.329zm10.084-6.006h1.176v7.224c0 .462-.1.891-.301 1.288a3.296 3.296 0 0 1-.798 1.043c-.336.299-.718.53-1.148.693a3.653 3.653 0 0 1-1.344.252c-.485 0-.954-.11-1.407-.329a3.927 3.927 0 0 1-1.19-.868 3.28 3.28 0 0 1-.728-1.211l1.078-.49c.089.322.248.611.476.868.234.261.504.467.812.616.313.154.633.231.959.231.308 0 .605-.054.889-.161.29-.107.549-.257.777-.448a2 2 0 0 0 .546-.665c.136-.252.203-.525.203-.819v-1.393a2.923 2.923 0 0 1-.945.98c-.387.247-.84.371-1.358.371-.494 0-.959-.096-1.393-.287a3.6 3.6 0 0 1-1.141-.791 3.858 3.858 0 0 1-.77-1.176 3.651 3.651 0 0 1-.28-1.428 3.74 3.74 0 0 1 1.05-2.604 3.542 3.542 0 0 1 1.141-.798 3.422 3.422 0 0 1 1.393-.287c.518 0 .971.124 1.358.371.392.247.707.574.945.98V386.5zm-2.296 6.041c.453 0 .845-.117 1.176-.35a2.3 2.3 0 0 0 .777-.931c.182-.387.273-.807.273-1.26 0-.467-.093-.891-.28-1.274a2.254 2.254 0 0 0-.777-.924 1.98 1.98 0 0 0-1.169-.35c-.438 0-.84.114-1.204.343a2.512 2.512 0 0 0-.868.924 2.62 2.62 0 0 0-.315 1.281c0 .471.108.901.322 1.288.22.383.509.688.868.917a2.24 2.24 0 0 0 1.197.336zm5.06-6.041h1.176v7h-1.176v-7zm.602-1.141a.65.65 0 0 1-.469-.182.605.605 0 0 1-.189-.455c0-.182.063-.334.189-.455a.642.642 0 0 1 .462-.182c.182 0 .336.061.462.182a.605.605 0 0 1 .189.455.605.605 0 0 1-.189.455.62.62 0 0 1-.455.182zm8.416 3.787v4.354h-1.176v-4.095c0-.355-.086-.677-.259-.966a1.923 1.923 0 0 0-.693-.686 1.844 1.844 0 0 0-.966-.259c-.35 0-.672.086-.966.259-.289.168-.52.397-.693.686a1.844 1.844 0 0 0-.259.966v4.095h-1.176v-7h1.176v.875c.247-.327.56-.586.938-.777a2.638 2.638 0 0 1 1.232-.294c.523 0 .999.128 1.428.385a2.81 2.81 0 0 1 1.029 1.022c.257.429.385.908.385 1.435z" fill="#fff"/>
    <defs>
        <linearGradient id="ncogwkr7ia" x1="59" y1="298.5" x2="59" y2="316.5" gradientUnits="userSpaceOnUse">
            <stop stop-color="#247EFC"/>
            <stop offset="1" stop-color="#0C66E4"/>
        </linearGradient>
        <linearGradient id="c2xwt3rehb" x1="260" y1="364.5" x2="260" y2="412.5" gradientUnits="userSpaceOnUse">
            <stop stop-color="#247EFC"/>
            <stop offset="1" stop-color="#0C66E4"/>
        </linearGradient>
    </defs>
</svg>
