<svg width="135" height="122" viewBox="0 0 135 122" fill="none" xmlns="http://www.w3.org/2000/svg">
<path fill-rule="evenodd" clip-rule="evenodd" d="M106.838 121.876C123.413 109.586 134.167 89.8065 134.167 67.5C134.167 30.2208 104.132 0 67.0833 0C30.0342 0 0 30.2208 0 67.5C0 89.7364 10.6859 109.462 27.1726 121.76C29.0585 101.422 46.1699 85.5 67 85.5C87.8697 85.5 105.007 101.483 106.838 121.876ZM90 53.5C90 66.2025 79.7025 76.5 67 76.5C54.2975 76.5 44 66.2025 44 53.5C44 40.7975 54.2975 30.5 67 30.5C79.7025 30.5 90 40.7975 90 53.5Z" fill="#C8DFFF"/>
</svg>
